<?xml version="1.0" standalone="no"?>
<!DOCTYPE svg PUBLIC "-//W3C//DTD SVG 20010904//EN"
 "http://www.w3.org/TR/2001/REC-SVG-20010904/DTD/svg10.dtd">
<svg version="1.0" xmlns="http://www.w3.org/2000/svg"
 width="621.000000pt" height="578.000000pt" viewBox="0 0 621.000000 578.000000"
 preserveAspectRatio="xMidYMid meet">

<g transform="translate(0.000000,578.000000) scale(0.100000,-0.100000)"
fill="#000000" stroke="none">
<path d="M4633 5669 c-26 -23 -59 -61 -72 -84 -24 -40 -28 -43 -80 -48 -73 -8
-84 -23 -76 -103 l6 -61 -32 -7 c-17 -3 -47 -15 -65 -27 -28 -17 -34 -27 -34
-56 0 -19 8 -57 17 -84 17 -47 17 -49 -3 -71 -11 -13 -28 -40 -37 -61 -24 -52
-38 -38 -31 31 7 71 -6 106 -48 132 -40 24 -67 25 -112 4 -39 -19 -56 -50 -56
-102 1 -44 15 -73 51 -101 20 -16 30 -36 39 -83 13 -70 4 -110 -28 -127 -58
-31 -182 -35 -182 -7 0 7 19 17 43 24 68 18 107 47 107 79 0 32 -41 117 -74
156 -21 24 -22 31 -13 76 13 63 6 72 -75 96 -35 10 -67 22 -72 26 -4 4 -8 32
-7 62 1 81 -8 88 -117 91 -89 3 -92 4 -131 39 -46 41 -76 52 -129 44 -37 -5
-142 -63 -142 -78 0 -5 15 -15 34 -23 37 -15 101 -93 111 -136 4 -14 22 -58
42 -99 31 -65 34 -81 29 -124 -10 -69 7 -113 55 -143 29 -18 49 -44 79 -104
22 -44 46 -80 54 -80 32 0 51 -66 33 -116 -5 -15 0 -32 19 -60 43 -63 46 -87
17 -127 -26 -37 -24 -57 5 -57 25 -1 48 -22 55 -50 5 -19 -2 -36 -28 -69 -40
-50 -43 -78 -15 -114 36 -45 174 -99 350 -136 107 -23 359 -40 596 -40 131 0
254 -1 272 -1 137 -3 478 76 563 130 77 50 85 96 27 157 -25 26 -29 36 -23 63
5 24 16 35 41 46 39 16 41 28 15 67 -22 34 -17 71 15 109 30 37 37 63 25 87
-16 30 -2 81 26 94 16 7 39 39 64 89 27 53 48 82 68 92 16 9 39 32 51 52 19
29 22 45 17 85 -5 44 0 64 45 174 51 126 73 156 159 217 l24 16 -75 36 c-41
20 -85 36 -98 36 -33 0 -93 -27 -123 -56 -24 -23 -37 -26 -118 -29 -50 -2 -95
-6 -100 -10 -6 -3 -13 -37 -17 -75 -6 -65 -8 -71 -33 -76 -69 -15 -130 -38
-135 -50 -3 -8 0 -36 6 -63 11 -47 10 -51 -17 -83 -29 -34 -75 -128 -75 -152
0 -21 98 -79 131 -79 37 0 36 -27 -2 -37 -35 -10 -159 23 -176 45 -32 45 -8
150 48 206 35 35 39 44 39 88 0 59 -23 92 -77 110 -33 11 -44 10 -80 -4 -23
-9 -45 -24 -48 -33 -17 -40 -23 -86 -15 -113 5 -17 5 -40 1 -52 -7 -20 -11
-16 -36 33 -15 30 -34 62 -41 71 -12 14 -11 22 6 63 29 65 24 105 -19 133 -19
13 -46 26 -60 30 -34 8 -41 21 -30 50 14 37 11 89 -7 104 -8 7 -39 14 -69 17
-51 4 -54 6 -71 43 -16 37 -105 129 -124 129 -5 0 -30 -19 -57 -41z m90 -30
c17 -12 40 -39 51 -61 17 -37 17 -43 3 -79 -15 -38 -15 -39 5 -39 11 0 31 9
45 20 30 23 85 26 102 6 9 -11 8 -28 -6 -75 -17 -57 -21 -62 -65 -81 -53 -23
-66 -36 -49 -53 8 -8 20 -7 44 6 52 27 116 47 135 41 66 -22 79 -53 45 -113
-16 -27 -23 -30 -73 -33 -43 -2 -56 -7 -58 -20 -3 -14 4 -18 31 -18 64 0 96
-18 123 -71 13 -28 22 -54 19 -58 -7 -13 -94 -41 -123 -41 -14 0 -40 10 -59
21 -45 28 -65 13 -34 -27 26 -34 27 -64 1 -97 -31 -39 -56 -43 -101 -13 -35
24 -39 30 -39 70 0 59 -18 108 -39 104 -12 -2 -17 -19 -21 -71 -5 -71 -14 -84
-76 -118 -37 -19 -94 33 -94 86 0 8 10 23 22 35 19 18 20 22 7 35 -13 13 -19
12 -54 -6 -42 -23 -75 -22 -138 5 -42 17 -45 28 -17 73 25 41 57 62 111 71 58
10 61 36 4 40 -74 5 -82 9 -100 57 -21 52 -13 67 41 85 38 13 81 3 147 -33 28
-16 40 -18 49 -9 16 16 -5 39 -42 47 -38 8 -56 31 -72 88 -9 35 -9 53 -2 65
18 28 61 26 105 -4 49 -34 66 -23 45 28 -13 31 -13 38 0 64 17 32 73 94 86 94
5 0 23 -10 41 -21z m-1195 -213 c34 -32 36 -43 17 -103 -11 -34 21 -30 39 5
27 52 49 64 103 56 65 -9 73 -18 73 -78 0 -50 -2 -55 -50 -99 -45 -42 -56 -67
-30 -67 4 0 32 16 61 35 66 43 97 50 143 31 27 -11 36 -21 36 -39 0 -32 -32
-71 -70 -87 -37 -15 -44 -57 -7 -45 81 26 109 13 140 -66 15 -38 15 -41 -3
-59 -33 -33 -69 -36 -117 -10 -51 27 -64 21 -40 -19 19 -33 22 -68 7 -105 -9
-24 -15 -26 -64 -26 -63 0 -80 15 -111 96 -15 39 -16 53 -6 79 16 44 14 70 -9
114 -13 27 -31 43 -59 54 -34 14 -44 26 -75 91 -20 41 -36 81 -36 89 0 17 -70
127 -95 147 -16 14 -15 16 21 32 50 23 89 15 132 -26z m2460 13 c25 -10 29
-27 8 -35 -30 -12 -88 -119 -147 -276 -6 -15 -24 -31 -42 -39 -77 -30 -107
-88 -86 -168 11 -45 10 -52 -15 -107 -15 -32 -32 -62 -39 -66 -22 -14 -104 -9
-117 7 -21 25 -25 99 -6 114 38 32 2 56 -38 26 -26 -20 -68 -19 -105 3 -26 14
-31 21 -26 42 19 76 70 118 122 98 16 -6 39 -8 49 -4 18 7 18 9 -5 24 -93 65
-117 121 -60 141 56 19 87 13 151 -30 40 -27 63 -38 70 -31 15 15 -6 47 -47
72 -39 24 -50 53 -42 107 8 47 12 50 77 58 l55 7 29 -46 c37 -58 52 -55 48 10
-6 93 62 132 166 93z m-1821 -251 c29 -27 29 -55 1 -85 -27 -29 -71 -30 -98
-3 -26 26 -25 58 2 87 27 29 65 29 95 1z m1127 1 c30 -24 32 -40 9 -80 -13
-22 -25 -29 -48 -29 -71 0 -101 68 -49 109 15 12 34 21 44 21 10 0 29 -9 44
-21z m-1707 -154 c23 -16 37 -57 28 -86 -15 -46 -75 5 -75 63 0 42 12 48 47
23z m2249 -19 c7 -28 -13 -74 -39 -90 -15 -9 -21 -7 -33 9 -18 25 -11 64 18
88 28 24 47 21 54 -7z m-1634 -70 c10 -38 25 -80 34 -93 30 -47 104 -64 210
-49 36 5 54 4 59 -4 30 -49 -207 -34 -282 17 l-36 25 -25 -32 c-46 -59 -202
-117 -291 -108 l-33 3 19 24 c18 22 26 24 95 22 63 -2 84 2 131 24 33 16 59
35 63 48 3 11 3 60 -1 109 -7 89 -7 90 16 86 19 -2 26 -14 41 -72z m1019 4
c-16 -74 -14 -100 12 -137 31 -46 110 -75 195 -72 53 2 67 -1 78 -16 24 -33
17 -38 -50 -32 -85 8 -168 44 -231 100 -51 45 -52 45 -71 26 -23 -23 -136 -49
-214 -49 -60 0 -91 13 -75 29 7 7 32 6 77 -1 124 -22 184 14 218 129 31 106
83 126 61 23z m-893 -5 c34 -14 72 -25 86 -25 17 0 26 -7 30 -27 9 -34 -5 -43
-69 -43 -70 0 -96 17 -117 73 -21 56 -17 58 70 22z m788 0 c-14 -54 -27 -76
-51 -85 -34 -13 -111 -13 -135 0 -26 14 -14 49 19 56 14 3 51 16 81 29 75 32
94 32 86 0z m-412 -114 c3 -5 -8 -11 -24 -13 -30 -5 -41 6 -17 15 20 9 35 8
41 -2z m-69 -190 c16 -6 7 -14 -50 -45 -39 -20 -81 -45 -94 -55 l-25 -19 47
-30 c26 -16 72 -43 102 -58 30 -16 55 -32 55 -36 0 -5 -44 -8 -97 -8 -136 0
-296 -16 -467 -45 -80 -14 -151 -25 -158 -25 -7 0 23 33 67 74 53 49 77 77 70
84 -5 5 -42 17 -82 27 -71 17 -105 37 -84 50 16 10 243 55 276 55 l30 0 -22
-18 c-12 -9 -27 -30 -32 -45 -19 -51 -13 -77 28 -118 30 -31 46 -39 74 -39 51
0 86 33 93 90 8 60 -8 95 -52 118 l-37 19 47 12 c27 6 56 9 65 6 10 -3 29 -1
42 4 29 12 176 13 204 2z m360 -10 c50 -6 99 -11 110 -12 11 0 -2 -8 -30 -17
-64 -22 -90 -62 -80 -124 10 -59 43 -88 98 -88 36 0 51 6 77 30 31 29 32 33
28 87 -4 47 -10 60 -34 81 l-29 24 54 -7 c59 -7 208 -40 249 -56 36 -14 20
-23 -80 -49 -49 -13 -88 -28 -88 -34 0 -6 34 -40 75 -76 74 -65 90 -86 58 -76
-108 33 -452 76 -610 76 -45 0 -84 4 -87 9 -3 4 30 28 75 52 120 66 117 64 97
86 -9 10 -34 27 -55 37 -21 11 -53 29 -72 40 -30 17 -32 20 -15 26 25 9 145 5
259 -9z m-258 -62 c50 -28 64 -40 58 -49 -8 -12 -93 -50 -114 -50 -21 0 -111
48 -111 59 0 11 92 60 112 61 10 0 34 -9 55 -21z m-429 -21 c7 -7 12 -24 12
-38 0 -33 -17 -50 -49 -50 -28 0 -61 26 -61 48 0 41 69 69 98 40z m832 -7 c17
-32 11 -60 -15 -77 -54 -35 -115 37 -65 78 29 24 67 23 80 -1z m-1172 -73 l34
-10 -24 -25 c-51 -55 -68 -62 -120 -46 -27 7 -48 17 -48 21 0 4 16 24 35 45
37 40 40 40 123 15z m1552 -20 c16 -18 30 -38 30 -45 0 -12 -58 -33 -90 -33
-16 0 -97 76 -89 84 7 7 73 24 97 25 13 1 34 -12 52 -31z m-405 -222 c151 -25
365 -84 365 -101 0 -24 -238 -78 -415 -95 -192 -18 -228 -20 -330 -20 -141 0
-412 18 -528 35 -160 24 -320 70 -314 90 9 27 254 84 452 104 133 14 660 5
770 -13z"/>
<path d="M4677 5563 c-2 -4 -8 -55 -12 -112 -6 -82 -5 -105 6 -112 43 -27 52
-2 38 119 -10 91 -20 125 -32 105z"/>
<path d="M4618 5273 c-40 -43 -51 -71 -43 -112 14 -77 90 -118 159 -86 47 23
66 50 66 97 0 104 -117 170 -182 101z m117 -48 c30 -29 31 -45 7 -76 -38 -46
-122 -17 -122 42 0 56 72 78 115 34z"/>
<path d="M4433 5094 c-106 -60 -99 -77 19 -45 89 25 102 34 87 63 -14 26 -36
22 -106 -18z"/>
<path d="M4834 5115 c-11 -27 3 -41 58 -58 88 -28 118 -32 118 -15 0 13 -135
88 -159 88 -7 0 -14 -7 -17 -15z"/>
<path d="M3695 4989 c-4 -12 -3 -25 3 -31 15 -15 242 -24 242 -9 0 6 -2 11 -3
11 -2 0 -55 11 -117 25 -62 14 -114 25 -116 25 -1 0 -6 -9 -9 -21z"/>
<path d="M5549 4981 c-106 -22 -122 -28 -114 -42 7 -11 149 -6 213 7 26 5 32
11 30 28 -4 27 -24 28 -129 7z"/>
<path d="M4410 4224 c-19 -2 -78 -9 -130 -14 -189 -21 -292 -46 -288 -68 6
-33 162 -69 418 -97 131 -14 180 -12 180 6 0 5 -1 9 -2 9 -2 0 -67 13 -146 29
-199 40 -201 45 -27 60 153 14 377 14 529 0 174 -15 177 -26 16 -54 -52 -9
-111 -21 -130 -27 -19 -6 -42 -13 -50 -15 -34 -10 13 -18 92 -17 155 3 335 28
452 62 34 9 56 36 41 51 -13 13 -127 38 -260 58 -95 14 -609 27 -695 17z"/>
<path d="M1473 5659 c-26 -23 -59 -61 -72 -84 -24 -40 -28 -43 -80 -48 -73 -8
-84 -23 -76 -103 l6 -61 -32 -7 c-17 -3 -47 -15 -65 -27 -28 -17 -34 -27 -34
-56 0 -19 8 -57 17 -84 17 -47 17 -49 -3 -71 -11 -13 -28 -40 -37 -61 -24 -52
-38 -38 -31 31 7 71 -6 106 -48 132 -40 24 -67 25 -112 4 -39 -19 -56 -50 -56
-102 1 -44 15 -73 51 -101 20 -16 30 -36 39 -83 13 -70 4 -110 -28 -127 -58
-31 -182 -35 -182 -7 0 7 19 17 43 24 68 18 107 47 107 79 0 32 -41 117 -74
156 -21 24 -22 31 -13 76 13 63 6 72 -75 96 -35 10 -67 22 -72 26 -4 4 -8 32
-7 62 1 81 -8 88 -117 91 -89 3 -92 4 -131 39 -46 41 -76 52 -129 44 -37 -5
-142 -63 -142 -78 0 -5 15 -15 34 -23 37 -15 101 -93 111 -136 4 -14 22 -58
42 -99 31 -65 34 -81 29 -124 -10 -69 7 -113 55 -143 29 -18 49 -44 79 -104
22 -44 46 -80 54 -80 32 0 51 -66 33 -116 -5 -15 0 -32 19 -60 43 -63 46 -87
17 -127 -26 -37 -24 -57 5 -57 25 -1 48 -22 55 -50 5 -19 -2 -36 -28 -69 -40
-50 -43 -78 -15 -114 36 -45 174 -99 350 -136 107 -23 359 -40 596 -40 131 0
254 -1 272 -1 137 -3 478 76 563 130 77 50 85 96 27 157 -25 26 -29 36 -23 63
5 24 16 35 41 46 39 16 41 28 15 67 -22 34 -17 71 15 109 30 37 37 63 25 87
-16 30 -2 81 26 94 16 7 39 39 64 89 27 53 48 82 68 92 16 9 39 32 51 52 19
29 22 45 17 85 -5 44 0 64 45 174 51 126 73 156 159 217 l24 16 -75 36 c-41
20 -85 36 -98 36 -33 0 -93 -27 -123 -56 -24 -23 -37 -26 -118 -29 -50 -2 -95
-6 -100 -10 -6 -3 -13 -37 -17 -75 -6 -65 -8 -71 -33 -76 -69 -15 -130 -38
-135 -50 -3 -8 0 -36 6 -63 11 -47 10 -51 -17 -83 -29 -34 -75 -128 -75 -152
0 -21 98 -79 131 -79 37 0 36 -27 -2 -37 -35 -10 -159 23 -176 45 -32 45 -8
150 48 206 35 35 39 44 39 88 0 59 -23 92 -77 110 -33 11 -44 10 -80 -4 -23
-9 -45 -24 -48 -33 -17 -40 -23 -86 -15 -113 5 -17 5 -40 1 -52 -7 -20 -11
-16 -36 33 -15 30 -34 62 -41 71 -12 14 -11 22 6 63 29 65 24 105 -19 133 -19
13 -46 26 -60 30 -34 8 -41 21 -30 50 14 37 11 89 -7 104 -8 7 -39 14 -69 17
-51 4 -54 6 -71 43 -16 37 -105 129 -124 129 -5 0 -30 -19 -57 -41z m90 -30
c17 -12 40 -39 51 -61 17 -37 17 -43 3 -79 -15 -38 -15 -39 5 -39 11 0 31 9
45 20 30 23 85 26 102 6 9 -11 8 -28 -6 -75 -17 -57 -21 -62 -65 -81 -53 -23
-66 -36 -49 -53 8 -8 20 -7 44 6 52 27 116 47 135 41 66 -22 79 -53 45 -113
-16 -27 -23 -30 -73 -33 -43 -2 -56 -7 -58 -20 -3 -14 4 -18 31 -18 64 0 96
-18 123 -71 13 -28 22 -54 19 -58 -7 -13 -94 -41 -123 -41 -14 0 -40 10 -59
21 -45 28 -65 13 -34 -27 26 -34 27 -64 1 -97 -31 -39 -56 -43 -101 -13 -35
24 -39 30 -39 70 0 59 -18 108 -39 104 -12 -2 -17 -19 -21 -71 -5 -71 -14 -84
-76 -118 -37 -19 -94 33 -94 86 0 8 10 23 22 35 19 18 20 22 7 35 -13 13 -19
12 -54 -6 -42 -23 -75 -22 -138 5 -42 17 -45 28 -17 73 25 41 57 62 111 71 58
10 61 36 4 40 -74 5 -82 9 -100 57 -21 52 -13 67 41 85 38 13 81 3 147 -33 28
-16 40 -18 49 -9 16 16 -5 39 -42 47 -38 8 -56 31 -72 88 -9 35 -9 53 -2 65
18 28 61 26 105 -4 49 -34 66 -23 45 28 -13 31 -13 38 0 64 17 32 73 94 86 94
5 0 23 -10 41 -21z m-1195 -213 c34 -32 36 -43 17 -103 -11 -34 21 -30 39 5
27 52 49 64 103 56 65 -9 73 -18 73 -78 0 -50 -2 -55 -50 -99 -45 -42 -56 -67
-30 -67 4 0 32 16 61 35 66 43 97 50 143 31 27 -11 36 -21 36 -39 0 -32 -32
-71 -70 -87 -37 -15 -44 -57 -7 -45 81 26 109 13 140 -66 15 -38 15 -41 -3
-59 -33 -33 -69 -36 -117 -10 -51 27 -64 21 -40 -19 19 -33 22 -68 7 -105 -9
-24 -15 -26 -64 -26 -63 0 -80 15 -111 96 -15 39 -16 53 -6 79 16 44 14 70 -9
114 -13 27 -31 43 -59 54 -34 14 -44 26 -75 91 -20 41 -36 81 -36 89 0 17 -70
127 -95 147 -16 14 -15 16 21 32 50 23 89 15 132 -26z m2460 13 c25 -10 29
-27 8 -35 -30 -12 -88 -119 -147 -276 -6 -15 -24 -31 -42 -39 -77 -30 -107
-88 -86 -168 11 -45 10 -52 -15 -107 -15 -32 -32 -62 -39 -66 -22 -14 -104 -9
-117 7 -21 25 -25 99 -6 114 38 32 2 56 -38 26 -26 -20 -68 -19 -105 3 -26 14
-31 21 -26 42 19 76 70 118 122 98 16 -6 39 -8 49 -4 18 7 18 9 -5 24 -93 65
-117 121 -60 141 56 19 87 13 151 -30 40 -27 63 -38 70 -31 15 15 -6 47 -47
72 -39 24 -50 53 -42 107 8 47 12 50 77 58 l55 7 29 -46 c37 -58 52 -55 48 10
-6 93 62 132 166 93z m-1821 -251 c29 -27 29 -55 1 -85 -27 -29 -71 -30 -98
-3 -26 26 -25 58 2 87 27 29 65 29 95 1z m1127 1 c30 -24 32 -40 9 -80 -13
-22 -25 -29 -48 -29 -71 0 -101 68 -49 109 15 12 34 21 44 21 10 0 29 -9 44
-21z m-1707 -154 c23 -16 37 -57 28 -86 -15 -46 -75 5 -75 63 0 42 12 48 47
23z m2249 -19 c7 -28 -13 -74 -39 -90 -15 -9 -21 -7 -33 9 -18 25 -11 64 18
88 28 24 47 21 54 -7z m-1634 -70 c10 -38 25 -80 34 -93 30 -47 104 -64 210
-49 36 5 54 4 59 -4 30 -49 -207 -34 -282 17 l-36 25 -25 -32 c-46 -59 -202
-117 -291 -108 l-33 3 19 24 c18 22 26 24 95 22 63 -2 84 2 131 24 33 16 59
35 63 48 3 11 3 60 -1 109 -7 89 -7 90 16 86 19 -2 26 -14 41 -72z m1019 4
c-16 -74 -14 -100 12 -137 31 -46 110 -75 195 -72 53 2 67 -1 78 -16 24 -33
17 -38 -50 -32 -85 8 -168 44 -231 100 -51 45 -52 45 -71 26 -23 -23 -136 -49
-214 -49 -60 0 -91 13 -75 29 7 7 32 6 77 -1 124 -22 184 14 218 129 31 106
83 126 61 23z m-893 -5 c34 -14 72 -25 86 -25 17 0 26 -7 30 -27 9 -34 -5 -43
-69 -43 -70 0 -96 17 -117 73 -21 56 -17 58 70 22z m788 0 c-14 -54 -27 -76
-51 -85 -34 -13 -111 -13 -135 0 -26 14 -14 49 19 56 14 3 51 16 81 29 75 32
94 32 86 0z m-412 -114 c3 -5 -8 -11 -24 -13 -30 -5 -41 6 -17 15 20 9 35 8
41 -2z m-69 -190 c16 -6 7 -14 -50 -45 -39 -20 -81 -45 -94 -55 l-25 -19 47
-30 c26 -16 72 -43 102 -58 30 -16 55 -32 55 -36 0 -5 -44 -8 -97 -8 -136 0
-296 -16 -467 -45 -80 -14 -151 -25 -158 -25 -7 0 23 33 67 74 53 49 77 77 70
84 -5 5 -42 17 -82 27 -71 17 -105 37 -84 50 16 10 243 55 276 55 l30 0 -22
-18 c-12 -9 -27 -30 -32 -45 -19 -51 -13 -77 28 -118 30 -31 46 -39 74 -39 51
0 86 33 93 90 8 60 -8 95 -52 118 l-37 19 47 12 c27 6 56 9 65 6 10 -3 29 -1
42 4 29 12 176 13 204 2z m360 -10 c50 -6 99 -11 110 -12 11 0 -2 -8 -30 -17
-64 -22 -90 -62 -80 -124 10 -59 43 -88 98 -88 36 0 51 6 77 30 31 29 32 33
28 87 -4 47 -10 60 -34 81 l-29 24 54 -7 c59 -7 208 -40 249 -56 36 -14 20
-23 -80 -49 -49 -13 -88 -28 -88 -34 0 -6 34 -40 75 -76 74 -65 90 -86 58 -76
-108 33 -452 76 -610 76 -45 0 -84 4 -87 9 -3 4 30 28 75 52 120 66 117 64 97
86 -9 10 -34 27 -55 37 -21 11 -53 29 -72 40 -30 17 -32 20 -15 26 25 9 145 5
259 -9z m-258 -62 c50 -28 64 -40 58 -49 -8 -12 -93 -50 -114 -50 -21 0 -111
48 -111 59 0 11 92 60 112 61 10 0 34 -9 55 -21z m-429 -21 c7 -7 12 -24 12
-38 0 -33 -17 -50 -49 -50 -28 0 -61 26 -61 48 0 41 69 69 98 40z m832 -7 c17
-32 11 -60 -15 -77 -54 -35 -115 37 -65 78 29 24 67 23 80 -1z m-1172 -73 l34
-10 -24 -25 c-51 -55 -68 -62 -120 -46 -27 7 -48 17 -48 21 0 4 16 24 35 45
37 40 40 40 123 15z m1552 -20 c16 -18 30 -38 30 -45 0 -12 -58 -33 -90 -33
-16 0 -97 76 -89 84 7 7 73 24 97 25 13 1 34 -12 52 -31z m-405 -222 c151 -25
365 -84 365 -101 0 -24 -238 -78 -415 -95 -192 -18 -228 -20 -330 -20 -141 0
-412 18 -528 35 -160 24 -320 70 -314 90 9 27 254 84 452 104 133 14 660 5
770 -13z"/>
<path d="M1517 5553 c-2 -4 -8 -55 -12 -112 -6 -82 -5 -105 6 -112 43 -27 52
-2 38 119 -10 91 -20 125 -32 105z"/>
<path d="M1458 5263 c-40 -43 -51 -71 -43 -112 14 -77 90 -118 159 -86 47 23
66 50 66 97 0 104 -117 170 -182 101z m117 -48 c30 -29 31 -45 7 -76 -38 -46
-122 -17 -122 42 0 56 72 78 115 34z"/>
<path d="M1273 5084 c-106 -60 -99 -77 19 -45 89 25 102 34 87 63 -14 26 -36
22 -106 -18z"/>
<path d="M1674 5105 c-11 -27 3 -41 58 -58 88 -28 118 -32 118 -15 0 13 -135
88 -159 88 -7 0 -14 -7 -17 -15z"/>
<path d="M535 4979 c-4 -12 -3 -25 3 -31 15 -15 242 -24 242 -9 0 6 -2 11 -3
11 -2 0 -55 11 -117 25 -62 14 -114 25 -116 25 -1 0 -6 -9 -9 -21z"/>
<path d="M2389 4971 c-106 -22 -122 -28 -114 -42 7 -11 149 -6 213 7 26 5 32
11 30 28 -4 27 -24 28 -129 7z"/>
<path d="M1250 4214 c-19 -2 -78 -9 -130 -14 -189 -21 -292 -46 -288 -68 6
-33 162 -69 418 -97 131 -14 180 -12 180 6 0 5 -1 9 -2 9 -2 0 -67 13 -146 29
-199 40 -201 45 -27 60 153 14 377 14 529 0 174 -15 177 -26 16 -54 -52 -9
-111 -21 -130 -27 -19 -6 -42 -13 -50 -15 -34 -10 13 -18 92 -17 155 3 335 28
452 62 34 9 56 36 41 51 -13 13 -127 38 -260 58 -95 14 -609 27 -695 17z"/>
<path d="M4613 3629 c-26 -23 -59 -61 -72 -84 -24 -40 -28 -43 -80 -48 -73 -8
-84 -23 -76 -103 l6 -61 -32 -7 c-17 -3 -47 -15 -65 -27 -28 -17 -34 -27 -34
-56 0 -19 8 -57 17 -84 17 -47 17 -49 -3 -71 -11 -13 -28 -40 -37 -61 -24 -52
-38 -38 -31 31 7 71 -6 106 -48 132 -40 24 -67 25 -112 4 -39 -19 -56 -50 -56
-102 1 -44 15 -73 51 -101 20 -16 30 -36 39 -83 13 -70 4 -110 -28 -127 -58
-31 -182 -35 -182 -7 0 7 19 17 43 24 68 18 107 47 107 79 0 32 -41 117 -74
156 -21 24 -22 31 -13 76 13 63 6 72 -75 96 -35 10 -67 22 -72 26 -4 4 -8 32
-7 62 1 81 -8 88 -117 91 -89 3 -92 4 -131 39 -46 41 -76 52 -129 44 -37 -5
-142 -63 -142 -78 0 -5 15 -15 34 -23 37 -15 101 -93 111 -136 4 -14 22 -58
42 -99 31 -65 34 -81 29 -124 -10 -69 7 -113 55 -143 29 -18 49 -44 79 -104
22 -44 46 -80 54 -80 32 0 51 -66 33 -116 -5 -15 0 -32 19 -60 43 -63 46 -87
17 -127 -26 -37 -24 -57 5 -57 25 -1 48 -22 55 -50 5 -19 -2 -36 -28 -69 -40
-50 -43 -78 -15 -114 36 -45 174 -99 350 -136 107 -23 359 -40 596 -40 131 0
254 -1 272 -1 137 -3 478 76 563 130 77 50 85 96 27 157 -25 26 -29 36 -23 63
5 24 16 35 41 46 39 16 41 28 15 67 -22 34 -17 71 15 109 30 37 37 63 25 87
-16 30 -2 81 26 94 16 7 39 39 64 89 27 53 48 82 68 92 16 9 39 32 51 52 19
29 22 45 17 85 -5 44 0 64 45 174 51 126 73 156 159 217 l24 16 -75 36 c-41
20 -85 36 -98 36 -33 0 -93 -27 -123 -56 -24 -23 -37 -26 -118 -29 -50 -2 -95
-6 -100 -10 -6 -3 -13 -37 -17 -75 -6 -65 -8 -71 -33 -76 -69 -15 -130 -38
-135 -50 -3 -8 0 -36 6 -63 11 -47 10 -51 -17 -83 -29 -34 -75 -128 -75 -152
0 -21 98 -79 131 -79 37 0 36 -27 -2 -37 -35 -10 -159 23 -176 45 -32 45 -8
150 48 206 35 35 39 44 39 88 0 59 -23 92 -77 110 -33 11 -44 10 -80 -4 -23
-9 -45 -24 -48 -33 -17 -40 -23 -86 -15 -113 5 -17 5 -40 1 -52 -7 -20 -11
-16 -36 33 -15 30 -34 62 -41 71 -12 14 -11 22 6 63 29 65 24 105 -19 133 -19
13 -46 26 -60 30 -34 8 -41 21 -30 50 14 37 11 89 -7 104 -8 7 -39 14 -69 17
-51 4 -54 6 -71 43 -16 37 -105 129 -124 129 -5 0 -30 -19 -57 -41z m90 -30
c17 -12 40 -39 51 -61 17 -37 17 -43 3 -79 -15 -38 -15 -39 5 -39 11 0 31 9
45 20 30 23 85 26 102 6 9 -11 8 -28 -6 -75 -17 -57 -21 -62 -65 -81 -53 -23
-66 -36 -49 -53 8 -8 20 -7 44 6 52 27 116 47 135 41 66 -22 79 -53 45 -113
-16 -27 -23 -30 -73 -33 -43 -2 -56 -7 -58 -20 -3 -14 4 -18 31 -18 64 0 96
-18 123 -71 13 -28 22 -54 19 -58 -7 -13 -94 -41 -123 -41 -14 0 -40 10 -59
21 -45 28 -65 13 -34 -27 26 -34 27 -64 1 -97 -31 -39 -56 -43 -101 -13 -35
24 -39 30 -39 70 0 59 -18 108 -39 104 -12 -2 -17 -19 -21 -71 -5 -71 -14 -84
-76 -118 -37 -19 -94 33 -94 86 0 8 10 23 22 35 19 18 20 22 7 35 -13 13 -19
12 -54 -6 -42 -23 -75 -22 -138 5 -42 17 -45 28 -17 73 25 41 57 62 111 71 58
10 61 36 4 40 -74 5 -82 9 -100 57 -21 52 -13 67 41 85 38 13 81 3 147 -33 28
-16 40 -18 49 -9 16 16 -5 39 -42 47 -38 8 -56 31 -72 88 -9 35 -9 53 -2 65
18 28 61 26 105 -4 49 -34 66 -23 45 28 -13 31 -13 38 0 64 17 32 73 94 86 94
5 0 23 -10 41 -21z m-1195 -213 c34 -32 36 -43 17 -103 -11 -34 21 -30 39 5
27 52 49 64 103 56 65 -9 73 -18 73 -78 0 -50 -2 -55 -50 -99 -45 -42 -56 -67
-30 -67 4 0 32 16 61 35 66 43 97 50 143 31 27 -11 36 -21 36 -39 0 -32 -32
-71 -70 -87 -37 -15 -44 -57 -7 -45 81 26 109 13 140 -66 15 -38 15 -41 -3
-59 -33 -33 -69 -36 -117 -10 -51 27 -64 21 -40 -19 19 -33 22 -68 7 -105 -9
-24 -15 -26 -64 -26 -63 0 -80 15 -111 96 -15 39 -16 53 -6 79 16 44 14 70 -9
114 -13 27 -31 43 -59 54 -34 14 -44 26 -75 91 -20 41 -36 81 -36 89 0 17 -70
127 -95 147 -16 14 -15 16 21 32 50 23 89 15 132 -26z m2460 13 c25 -10 29
-27 8 -35 -30 -12 -88 -119 -147 -276 -6 -15 -24 -31 -42 -39 -77 -30 -107
-88 -86 -168 11 -45 10 -52 -15 -107 -15 -32 -32 -62 -39 -66 -22 -14 -104 -9
-117 7 -21 25 -25 99 -6 114 38 32 2 56 -38 26 -26 -20 -68 -19 -105 3 -26 14
-31 21 -26 42 19 76 70 118 122 98 16 -6 39 -8 49 -4 18 7 18 9 -5 24 -93 65
-117 121 -60 141 56 19 87 13 151 -30 40 -27 63 -38 70 -31 15 15 -6 47 -47
72 -39 24 -50 53 -42 107 8 47 12 50 77 58 l55 7 29 -46 c37 -58 52 -55 48 10
-6 93 62 132 166 93z m-1821 -251 c29 -27 29 -55 1 -85 -27 -29 -71 -30 -98
-3 -26 26 -25 58 2 87 27 29 65 29 95 1z m1127 1 c30 -24 32 -40 9 -80 -13
-22 -25 -29 -48 -29 -71 0 -101 68 -49 109 15 12 34 21 44 21 10 0 29 -9 44
-21z m-1707 -154 c23 -16 37 -57 28 -86 -15 -46 -75 5 -75 63 0 42 12 48 47
23z m2249 -19 c7 -28 -13 -74 -39 -90 -15 -9 -21 -7 -33 9 -18 25 -11 64 18
88 28 24 47 21 54 -7z m-1634 -70 c10 -38 25 -80 34 -93 30 -47 104 -64 210
-49 36 5 54 4 59 -4 30 -49 -207 -34 -282 17 l-36 25 -25 -32 c-46 -59 -202
-117 -291 -108 l-33 3 19 24 c18 22 26 24 95 22 63 -2 84 2 131 24 33 16 59
35 63 48 3 11 3 60 -1 109 -7 89 -7 90 16 86 19 -2 26 -14 41 -72z m1019 4
c-16 -74 -14 -100 12 -137 31 -46 110 -75 195 -72 53 2 67 -1 78 -16 24 -33
17 -38 -50 -32 -85 8 -168 44 -231 100 -51 45 -52 45 -71 26 -23 -23 -136 -49
-214 -49 -60 0 -91 13 -75 29 7 7 32 6 77 -1 124 -22 184 14 218 129 31 106
83 126 61 23z m-893 -5 c34 -14 72 -25 86 -25 17 0 26 -7 30 -27 9 -34 -5 -43
-69 -43 -70 0 -96 17 -117 73 -21 56 -17 58 70 22z m788 0 c-14 -54 -27 -76
-51 -85 -34 -13 -111 -13 -135 0 -26 14 -14 49 19 56 14 3 51 16 81 29 75 32
94 32 86 0z m-412 -114 c3 -5 -8 -11 -24 -13 -30 -5 -41 6 -17 15 20 9 35 8
41 -2z m-69 -190 c16 -6 7 -14 -50 -45 -39 -20 -81 -45 -94 -55 l-25 -19 47
-30 c26 -16 72 -43 102 -58 30 -16 55 -32 55 -36 0 -5 -44 -8 -97 -8 -136 0
-296 -16 -467 -45 -80 -14 -151 -25 -158 -25 -7 0 23 33 67 74 53 49 77 77 70
84 -5 5 -42 17 -82 27 -71 17 -105 37 -84 50 16 10 243 55 276 55 l30 0 -22
-18 c-12 -9 -27 -30 -32 -45 -19 -51 -13 -77 28 -118 30 -31 46 -39 74 -39 51
0 86 33 93 90 8 60 -8 95 -52 118 l-37 19 47 12 c27 6 56 9 65 6 10 -3 29 -1
42 4 29 12 176 13 204 2z m360 -10 c50 -6 99 -11 110 -12 11 0 -2 -8 -30 -17
-64 -22 -90 -62 -80 -124 10 -59 43 -88 98 -88 36 0 51 6 77 30 31 29 32 33
28 87 -4 47 -10 60 -34 81 l-29 24 54 -7 c59 -7 208 -40 249 -56 36 -14 20
-23 -80 -49 -49 -13 -88 -28 -88 -34 0 -6 34 -40 75 -76 74 -65 90 -86 58 -76
-108 33 -452 76 -610 76 -45 0 -84 4 -87 9 -3 4 30 28 75 52 120 66 117 64 97
86 -9 10 -34 27 -55 37 -21 11 -53 29 -72 40 -30 17 -32 20 -15 26 25 9 145 5
259 -9z m-258 -62 c50 -28 64 -40 58 -49 -8 -12 -93 -50 -114 -50 -21 0 -111
48 -111 59 0 11 92 60 112 61 10 0 34 -9 55 -21z m-429 -21 c7 -7 12 -24 12
-38 0 -33 -17 -50 -49 -50 -28 0 -61 26 -61 48 0 41 69 69 98 40z m832 -7 c17
-32 11 -60 -15 -77 -54 -35 -115 37 -65 78 29 24 67 23 80 -1z m-1172 -73 l34
-10 -24 -25 c-51 -55 -68 -62 -120 -46 -27 7 -48 17 -48 21 0 4 16 24 35 45
37 40 40 40 123 15z m1552 -20 c16 -18 30 -38 30 -45 0 -12 -58 -33 -90 -33
-16 0 -97 76 -89 84 7 7 73 24 97 25 13 1 34 -12 52 -31z m-405 -222 c151 -25
365 -84 365 -101 0 -24 -238 -78 -415 -95 -192 -18 -228 -20 -330 -20 -141 0
-412 18 -528 35 -160 24 -320 70 -314 90 9 27 254 84 452 104 133 14 660 5
770 -13z"/>
<path d="M4657 3523 c-2 -4 -8 -55 -12 -112 -6 -82 -5 -105 6 -112 43 -27 52
-2 38 119 -10 91 -20 125 -32 105z"/>
<path d="M4598 3233 c-40 -43 -51 -71 -43 -112 14 -77 90 -118 159 -86 47 23
66 50 66 97 0 104 -117 170 -182 101z m117 -48 c30 -29 31 -45 7 -76 -38 -46
-122 -17 -122 42 0 56 72 78 115 34z"/>
<path d="M4413 3054 c-106 -60 -99 -77 19 -45 89 25 102 34 87 63 -14 26 -36
22 -106 -18z"/>
<path d="M4814 3075 c-11 -27 3 -41 58 -58 88 -28 118 -32 118 -15 0 13 -135
88 -159 88 -7 0 -14 -7 -17 -15z"/>
<path d="M3675 2949 c-4 -12 -3 -25 3 -31 15 -15 242 -24 242 -9 0 6 -2 11 -3
11 -2 0 -55 11 -117 25 -62 14 -114 25 -116 25 -1 0 -6 -9 -9 -21z"/>
<path d="M5529 2941 c-106 -22 -122 -28 -114 -42 7 -11 149 -6 213 7 26 5 32
11 30 28 -4 27 -24 28 -129 7z"/>
<path d="M4390 2184 c-19 -2 -78 -9 -130 -14 -189 -21 -292 -46 -288 -68 6
-33 162 -69 418 -97 131 -14 180 -12 180 6 0 5 -1 9 -2 9 -2 0 -67 13 -146 29
-199 40 -201 45 -27 60 153 14 377 14 529 0 174 -15 177 -26 16 -54 -52 -9
-111 -21 -130 -27 -19 -6 -42 -13 -50 -15 -34 -10 13 -18 92 -17 155 3 335 28
452 62 34 9 56 36 41 51 -13 13 -127 38 -260 58 -95 14 -609 27 -695 17z"/>
<path d="M1453 3619 c-26 -23 -59 -61 -72 -84 -24 -40 -28 -43 -80 -48 -73 -8
-84 -23 -76 -103 l6 -61 -32 -7 c-17 -3 -47 -15 -65 -27 -28 -17 -34 -27 -34
-56 0 -19 8 -57 17 -84 17 -47 17 -49 -3 -71 -11 -13 -28 -40 -37 -61 -24 -52
-38 -38 -31 31 7 71 -6 106 -48 132 -40 24 -67 25 -112 4 -39 -19 -56 -50 -56
-102 1 -44 15 -73 51 -101 20 -16 30 -36 39 -83 13 -70 4 -110 -28 -127 -58
-31 -182 -35 -182 -7 0 7 19 17 43 24 68 18 107 47 107 79 0 32 -41 117 -74
156 -21 24 -22 31 -13 76 13 63 6 72 -75 96 -35 10 -67 22 -72 26 -4 4 -8 32
-7 62 1 81 -8 88 -117 91 -89 3 -92 4 -131 39 -46 41 -76 52 -129 44 -37 -5
-142 -63 -142 -78 0 -5 15 -15 34 -23 37 -15 101 -93 111 -136 4 -14 22 -58
42 -99 31 -65 34 -81 29 -124 -10 -69 7 -113 55 -143 29 -18 49 -44 79 -104
22 -44 46 -80 54 -80 32 0 51 -66 33 -116 -5 -15 0 -32 19 -60 43 -63 46 -87
17 -127 -26 -37 -24 -57 5 -57 25 -1 48 -22 55 -50 5 -19 -2 -36 -28 -69 -40
-50 -43 -78 -15 -114 36 -45 174 -99 350 -136 107 -23 359 -40 596 -40 131 0
254 -1 272 -1 137 -3 478 76 563 130 77 50 85 96 27 157 -25 26 -29 36 -23 63
5 24 16 35 41 46 39 16 41 28 15 67 -22 34 -17 71 15 109 30 37 37 63 25 87
-16 30 -2 81 26 94 16 7 39 39 64 89 27 53 48 82 68 92 16 9 39 32 51 52 19
29 22 45 17 85 -5 44 0 64 45 174 51 126 73 156 159 217 l24 16 -75 36 c-41
20 -85 36 -98 36 -33 0 -93 -27 -123 -56 -24 -23 -37 -26 -118 -29 -50 -2 -95
-6 -100 -10 -6 -3 -13 -37 -17 -75 -6 -65 -8 -71 -33 -76 -69 -15 -130 -38
-135 -50 -3 -8 0 -36 6 -63 11 -47 10 -51 -17 -83 -29 -34 -75 -128 -75 -152
0 -21 98 -79 131 -79 37 0 36 -27 -2 -37 -35 -10 -159 23 -176 45 -32 45 -8
150 48 206 35 35 39 44 39 88 0 59 -23 92 -77 110 -33 11 -44 10 -80 -4 -23
-9 -45 -24 -48 -33 -17 -40 -23 -86 -15 -113 5 -17 5 -40 1 -52 -7 -20 -11
-16 -36 33 -15 30 -34 62 -41 71 -12 14 -11 22 6 63 29 65 24 105 -19 133 -19
13 -46 26 -60 30 -34 8 -41 21 -30 50 14 37 11 89 -7 104 -8 7 -39 14 -69 17
-51 4 -54 6 -71 43 -16 37 -105 129 -124 129 -5 0 -30 -19 -57 -41z m90 -30
c17 -12 40 -39 51 -61 17 -37 17 -43 3 -79 -15 -38 -15 -39 5 -39 11 0 31 9
45 20 30 23 85 26 102 6 9 -11 8 -28 -6 -75 -17 -57 -21 -62 -65 -81 -53 -23
-66 -36 -49 -53 8 -8 20 -7 44 6 52 27 116 47 135 41 66 -22 79 -53 45 -113
-16 -27 -23 -30 -73 -33 -43 -2 -56 -7 -58 -20 -3 -14 4 -18 31 -18 64 0 96
-18 123 -71 13 -28 22 -54 19 -58 -7 -13 -94 -41 -123 -41 -14 0 -40 10 -59
21 -45 28 -65 13 -34 -27 26 -34 27 -64 1 -97 -31 -39 -56 -43 -101 -13 -35
24 -39 30 -39 70 0 59 -18 108 -39 104 -12 -2 -17 -19 -21 -71 -5 -71 -14 -84
-76 -118 -37 -19 -94 33 -94 86 0 8 10 23 22 35 19 18 20 22 7 35 -13 13 -19
12 -54 -6 -42 -23 -75 -22 -138 5 -42 17 -45 28 -17 73 25 41 57 62 111 71 58
10 61 36 4 40 -74 5 -82 9 -100 57 -21 52 -13 67 41 85 38 13 81 3 147 -33 28
-16 40 -18 49 -9 16 16 -5 39 -42 47 -38 8 -56 31 -72 88 -9 35 -9 53 -2 65
18 28 61 26 105 -4 49 -34 66 -23 45 28 -13 31 -13 38 0 64 17 32 73 94 86 94
5 0 23 -10 41 -21z m-1195 -213 c34 -32 36 -43 17 -103 -11 -34 21 -30 39 5
27 52 49 64 103 56 65 -9 73 -18 73 -78 0 -50 -2 -55 -50 -99 -45 -42 -56 -67
-30 -67 4 0 32 16 61 35 66 43 97 50 143 31 27 -11 36 -21 36 -39 0 -32 -32
-71 -70 -87 -37 -15 -44 -57 -7 -45 81 26 109 13 140 -66 15 -38 15 -41 -3
-59 -33 -33 -69 -36 -117 -10 -51 27 -64 21 -40 -19 19 -33 22 -68 7 -105 -9
-24 -15 -26 -64 -26 -63 0 -80 15 -111 96 -15 39 -16 53 -6 79 16 44 14 70 -9
114 -13 27 -31 43 -59 54 -34 14 -44 26 -75 91 -20 41 -36 81 -36 89 0 17 -70
127 -95 147 -16 14 -15 16 21 32 50 23 89 15 132 -26z m2460 13 c25 -10 29
-27 8 -35 -30 -12 -88 -119 -147 -276 -6 -15 -24 -31 -42 -39 -77 -30 -107
-88 -86 -168 11 -45 10 -52 -15 -107 -15 -32 -32 -62 -39 -66 -22 -14 -104 -9
-117 7 -21 25 -25 99 -6 114 38 32 2 56 -38 26 -26 -20 -68 -19 -105 3 -26 14
-31 21 -26 42 19 76 70 118 122 98 16 -6 39 -8 49 -4 18 7 18 9 -5 24 -93 65
-117 121 -60 141 56 19 87 13 151 -30 40 -27 63 -38 70 -31 15 15 -6 47 -47
72 -39 24 -50 53 -42 107 8 47 12 50 77 58 l55 7 29 -46 c37 -58 52 -55 48 10
-6 93 62 132 166 93z m-1821 -251 c29 -27 29 -55 1 -85 -27 -29 -71 -30 -98
-3 -26 26 -25 58 2 87 27 29 65 29 95 1z m1127 1 c30 -24 32 -40 9 -80 -13
-22 -25 -29 -48 -29 -71 0 -101 68 -49 109 15 12 34 21 44 21 10 0 29 -9 44
-21z m-1707 -154 c23 -16 37 -57 28 -86 -15 -46 -75 5 -75 63 0 42 12 48 47
23z m2249 -19 c7 -28 -13 -74 -39 -90 -15 -9 -21 -7 -33 9 -18 25 -11 64 18
88 28 24 47 21 54 -7z m-1634 -70 c10 -38 25 -80 34 -93 30 -47 104 -64 210
-49 36 5 54 4 59 -4 30 -49 -207 -34 -282 17 l-36 25 -25 -32 c-46 -59 -202
-117 -291 -108 l-33 3 19 24 c18 22 26 24 95 22 63 -2 84 2 131 24 33 16 59
35 63 48 3 11 3 60 -1 109 -7 89 -7 90 16 86 19 -2 26 -14 41 -72z m1019 4
c-16 -74 -14 -100 12 -137 31 -46 110 -75 195 -72 53 2 67 -1 78 -16 24 -33
17 -38 -50 -32 -85 8 -168 44 -231 100 -51 45 -52 45 -71 26 -23 -23 -136 -49
-214 -49 -60 0 -91 13 -75 29 7 7 32 6 77 -1 124 -22 184 14 218 129 31 106
83 126 61 23z m-893 -5 c34 -14 72 -25 86 -25 17 0 26 -7 30 -27 9 -34 -5 -43
-69 -43 -70 0 -96 17 -117 73 -21 56 -17 58 70 22z m788 0 c-14 -54 -27 -76
-51 -85 -34 -13 -111 -13 -135 0 -26 14 -14 49 19 56 14 3 51 16 81 29 75 32
94 32 86 0z m-412 -114 c3 -5 -8 -11 -24 -13 -30 -5 -41 6 -17 15 20 9 35 8
41 -2z m-69 -190 c16 -6 7 -14 -50 -45 -39 -20 -81 -45 -94 -55 l-25 -19 47
-30 c26 -16 72 -43 102 -58 30 -16 55 -32 55 -36 0 -5 -44 -8 -97 -8 -136 0
-296 -16 -467 -45 -80 -14 -151 -25 -158 -25 -7 0 23 33 67 74 53 49 77 77 70
84 -5 5 -42 17 -82 27 -71 17 -105 37 -84 50 16 10 243 55 276 55 l30 0 -22
-18 c-12 -9 -27 -30 -32 -45 -19 -51 -13 -77 28 -118 30 -31 46 -39 74 -39 51
0 86 33 93 90 8 60 -8 95 -52 118 l-37 19 47 12 c27 6 56 9 65 6 10 -3 29 -1
42 4 29 12 176 13 204 2z m360 -10 c50 -6 99 -11 110 -12 11 0 -2 -8 -30 -17
-64 -22 -90 -62 -80 -124 10 -59 43 -88 98 -88 36 0 51 6 77 30 31 29 32 33
28 87 -4 47 -10 60 -34 81 l-29 24 54 -7 c59 -7 208 -40 249 -56 36 -14 20
-23 -80 -49 -49 -13 -88 -28 -88 -34 0 -6 34 -40 75 -76 74 -65 90 -86 58 -76
-108 33 -452 76 -610 76 -45 0 -84 4 -87 9 -3 4 30 28 75 52 120 66 117 64 97
86 -9 10 -34 27 -55 37 -21 11 -53 29 -72 40 -30 17 -32 20 -15 26 25 9 145 5
259 -9z m-258 -62 c50 -28 64 -40 58 -49 -8 -12 -93 -50 -114 -50 -21 0 -111
48 -111 59 0 11 92 60 112 61 10 0 34 -9 55 -21z m-429 -21 c7 -7 12 -24 12
-38 0 -33 -17 -50 -49 -50 -28 0 -61 26 -61 48 0 41 69 69 98 40z m832 -7 c17
-32 11 -60 -15 -77 -54 -35 -115 37 -65 78 29 24 67 23 80 -1z m-1172 -73 l34
-10 -24 -25 c-51 -55 -68 -62 -120 -46 -27 7 -48 17 -48 21 0 4 16 24 35 45
37 40 40 40 123 15z m1552 -20 c16 -18 30 -38 30 -45 0 -12 -58 -33 -90 -33
-16 0 -97 76 -89 84 7 7 73 24 97 25 13 1 34 -12 52 -31z m-405 -222 c151 -25
365 -84 365 -101 0 -24 -238 -78 -415 -95 -192 -18 -228 -20 -330 -20 -141 0
-412 18 -528 35 -160 24 -320 70 -314 90 9 27 254 84 452 104 133 14 660 5
770 -13z"/>
<path d="M1497 3513 c-2 -4 -8 -55 -12 -112 -6 -82 -5 -105 6 -112 43 -27 52
-2 38 119 -10 91 -20 125 -32 105z"/>
<path d="M1438 3223 c-40 -43 -51 -71 -43 -112 14 -77 90 -118 159 -86 47 23
66 50 66 97 0 104 -117 170 -182 101z m117 -48 c30 -29 31 -45 7 -76 -38 -46
-122 -17 -122 42 0 56 72 78 115 34z"/>
<path d="M1253 3044 c-106 -60 -99 -77 19 -45 89 25 102 34 87 63 -14 26 -36
22 -106 -18z"/>
<path d="M1654 3065 c-11 -27 3 -41 58 -58 88 -28 118 -32 118 -15 0 13 -135
88 -159 88 -7 0 -14 -7 -17 -15z"/>
<path d="M515 2939 c-4 -12 -3 -25 3 -31 15 -15 242 -24 242 -9 0 6 -2 11 -3
11 -2 0 -55 11 -117 25 -62 14 -114 25 -116 25 -1 0 -6 -9 -9 -21z"/>
<path d="M2369 2931 c-106 -22 -122 -28 -114 -42 7 -11 149 -6 213 7 26 5 32
11 30 28 -4 27 -24 28 -129 7z"/>
<path d="M1230 2174 c-19 -2 -78 -9 -130 -14 -189 -21 -292 -46 -288 -68 6
-33 162 -69 418 -97 131 -14 180 -12 180 6 0 5 -1 9 -2 9 -2 0 -67 13 -146 29
-199 40 -201 45 -27 60 153 14 377 14 529 0 174 -15 177 -26 16 -54 -52 -9
-111 -21 -130 -27 -19 -6 -42 -13 -50 -15 -34 -10 13 -18 92 -17 155 3 335 28
452 62 34 9 56 36 41 51 -13 13 -127 38 -260 58 -95 14 -609 27 -695 17z"/>
<path d="M1875 1546 c-58 -26 -109 -81 -138 -145 -16 -36 -22 -73 -25 -168
l-4 -123 41 0 41 0 -1 70 c-2 92 20 137 82 168 43 21 53 22 176 16 l131 -7
-56 -42 c-75 -55 -209 -198 -250 -268 -18 -30 -45 -88 -60 -129 -23 -65 -26
-88 -27 -208 0 -159 19 -238 83 -335 106 -163 232 -232 438 -242 214 -11 376
46 537 188 l46 40 6 -28 c18 -88 29 -110 76 -155 32 -32 58 -48 74 -48 28 0
225 145 225 165 0 7 -5 26 -11 44 -12 34 -35 40 -70 19 -17 -11 -23 -10 -39
10 -28 34 -32 95 -28 522 3 445 -2 412 88 519 45 53 49 70 22 94 -30 27 -55
20 -101 -27 l-44 -45 -88 60 c-49 32 -97 59 -108 59 -23 0 -241 -226 -241
-250 0 -22 20 -40 44 -40 11 0 42 21 68 47 l47 46 41 -28 41 -28 -3 -126 -3
-126 -55 -28 c-65 -33 -112 -32 -188 6 l-47 23 -3 262 -2 262 -44 0 c-28 0
-48 -6 -57 -17 -8 -9 -34 -25 -59 -36 -68 -31 -144 -26 -269 17 -130 45 -210
48 -286 12z m630 -1235 c-13 -33 -270 20 -270 56 0 6 35 41 77 77 42 36 90 87
105 113 l28 48 5 355 5 355 25 45 25 45 3 -540 c1 -297 0 -546 -3 -554z m-238
942 c-13 -21 -27 -47 -32 -58 -5 -11 -12 -158 -15 -326 l-5 -305 -30 -59 c-16
-32 -35 -60 -41 -62 -18 -6 -83 98 -105 168 -47 146 -32 297 42 449 33 67 59
102 121 163 44 44 82 77 84 74 3 -3 -5 -22 -19 -44z m377 -318 c63 -19 157
-19 203 0 19 8 37 15 39 15 2 0 4 -31 4 -69 l0 -69 -47 15 c-60 18 -175 13
-220 -11 l-33 -17 0 76 c0 41 1 75 3 75 1 0 24 -7 51 -15z m202 -194 l44 -20
0 -115 0 -116 -42 -31 c-48 -35 -188 -105 -230 -115 l-28 -6 0 186 0 186 25
16 c72 47 147 52 231 15z"/>
<path d="M580 1389 c-135 -90 -281 -183 -325 -209 l-79 -46 -32 -90 c-18 -49
-38 -126 -45 -171 -14 -95 -7 -256 15 -324 60 -190 196 -323 406 -395 85 -29
291 -27 385 4 253 84 570 374 656 600 26 70 36 204 20 287 -51 270 -326 470
-687 500 l-69 6 -245 -162z m190 -558 l0 -518 -52 9 c-65 12 -128 38 -190 81
l-47 31 94 97 c67 69 96 107 104 135 7 24 11 160 11 356 l0 317 38 4 c20 2 38
4 40 5 1 1 2 -231 2 -517z m233 464 c38 -13 94 -39 124 -57 63 -37 156 -124
150 -141 -6 -19 -97 -76 -140 -88 -76 -20 -177 10 -256 76 l-31 27 0 110 0
111 42 -7 c24 -4 74 -18 111 -31z m-545 -470 c-3 -217 -5 -254 -21 -282 -10
-18 -21 -33 -25 -33 -11 0 -70 93 -93 146 -32 77 -45 172 -31 244 16 89 62
179 118 236 l49 49 3 -55 c2 -30 2 -167 0 -305z m892 128 c11 -53 8 -162 -5
-184 -3 -5 -23 2 -44 16 -65 41 -143 58 -242 53 -74 -3 -98 -9 -148 -35 l-61
-32 0 115 c0 63 3 114 6 114 3 0 17 -9 31 -20 87 -68 294 -66 393 4 19 14 40
25 47 26 6 0 17 -26 23 -57z m-153 -213 c26 -11 62 -32 80 -46 l33 -25 -32
-62 c-48 -91 -156 -195 -248 -240 -41 -20 -99 -40 -127 -45 l-53 -9 0 161 0
162 43 41 c95 92 193 112 304 63z"/>
<path d="M3978 1375 l-198 -165 0 -268 c0 -271 -6 -326 -38 -355 -17 -16 -20
-13 -50 36 -149 246 -82 529 170 714 48 35 58 59 36 81 -22 22 -56 12 -135
-40 -110 -73 -229 -196 -276 -285 -116 -223 -99 -491 44 -700 73 -105 177
-182 314 -229 73 -26 92 -28 225 -28 133 0 152 2 225 28 147 51 249 126 346
255 53 70 59 89 31 114 -29 27 -48 21 -116 -37 -110 -93 -207 -138 -326 -152
l-60 -7 0 497 0 496 38 -16 c82 -36 171 -64 224 -70 l57 -7 75 69 c42 38 76
74 76 81 0 7 -5 23 -11 36 -10 22 -18 25 -99 30 -65 4 -115 15 -192 42 -167
59 -134 70 -360 -120z m112 -536 l0 -491 -36 6 c-66 13 -139 47 -207 97 l-68
49 69 60 c84 72 140 140 153 182 5 18 9 143 9 277 l0 244 38 33 c20 18 38 33
40 34 1 0 2 -221 2 -491z"/>
<path d="M5398 1375 l-198 -165 0 -268 c0 -271 -6 -326 -38 -355 -17 -16 -20
-13 -50 36 -149 246 -82 529 170 714 48 35 58 59 36 81 -22 22 -56 12 -135
-40 -110 -73 -229 -196 -276 -285 -116 -223 -99 -491 44 -700 73 -105 177
-182 314 -229 73 -26 92 -28 225 -28 133 0 152 2 225 28 147 51 249 126 346
255 53 70 59 89 31 114 -29 27 -48 21 -116 -37 -110 -93 -207 -138 -326 -152
l-60 -7 0 497 0 496 38 -16 c82 -36 171 -64 224 -70 l57 -7 75 69 c42 38 76
74 76 81 0 7 -5 23 -11 36 -10 22 -18 25 -99 30 -65 4 -115 15 -192 42 -167
59 -134 70 -360 -120z m112 -536 l0 -491 -36 6 c-66 13 -139 47 -207 97 l-68
49 69 60 c84 72 140 140 153 182 5 18 9 143 9 277 l0 244 38 33 c20 18 38 33
40 34 1 0 2 -221 2 -491z"/>
</g>
</svg>
